<svg height="16" viewBox="0 0 16 16" width="16" xmlns="http://www.w3.org/2000/svg"><path d="m15.0711.428933c-.3905-.390524-1.0237-.390524-1.4142.000001l-5.65689 5.656856-5.65686-5.656857c-.39052-.390524-1.02368-.390524-1.414209 0-.390524.390527-.390524 1.023687 0 1.414217l5.656859 5.65685-5.656859 5.6569c-.390524.3905-.390525 1.0236 0 1.4142.390529.3905 1.023689.3905 1.414209 0l5.65686-5.65688 5.65689 5.65688c.3905.3905 1.0237.3905 1.4142 0 .3905-.3906.3905-1.0237 0-1.4142l-5.65688-5.6569 5.65688-5.65685c.3905-.39053.3905-1.02369 0-1.414217z" fill="#fff" transform="translate(0 .5)"/></svg>